<svg width="179" height="51" viewBox="0 0 179 51" fill="none" xmlns="http://www.w3.org/2000/svg">
<path d="M164.629 16.8636H167.699V21.5746L167.511 23.6605H167.699C168.027 23.1136 168.496 22.6683 169.105 22.3246C169.73 21.9652 170.425 21.7855 171.191 21.7855C172.675 21.7855 173.769 22.223 174.472 23.098C175.191 23.973 175.55 25.1683 175.55 26.684V33.6449H172.48V27.059C172.48 26.2621 172.293 25.6605 171.918 25.2543C171.543 24.8324 171.019 24.6215 170.347 24.6215C169.925 24.6215 169.55 24.7152 169.222 24.9027C168.894 25.0746 168.613 25.3168 168.379 25.6293C168.16 25.9418 167.988 26.309 167.863 26.7308C167.754 27.1371 167.699 27.5746 167.699 28.0433V33.6449H164.629V16.8636Z" fill="white"/>
<path d="M163.459 30.7152C162.959 31.684 162.255 32.4808 161.349 33.1058C160.459 33.7152 159.341 34.0199 157.998 34.0199C157.107 34.0199 156.287 33.8715 155.537 33.5746C154.802 33.2621 154.162 32.8324 153.615 32.2855C153.083 31.7386 152.662 31.098 152.349 30.3636C152.052 29.6136 151.904 28.7933 151.904 27.9027C151.904 27.0121 152.052 26.1918 152.349 25.4418C152.662 24.6918 153.083 24.0511 153.615 23.5199C154.162 22.973 154.802 22.5511 155.537 22.2543C156.287 21.9418 157.107 21.7855 157.998 21.7855C159.326 21.7855 160.443 22.0902 161.349 22.6996C162.255 23.309 162.919 24.098 163.341 25.0668L160.529 26.2386C160.263 25.7074 159.919 25.309 159.498 25.0433C159.091 24.7621 158.576 24.6215 157.951 24.6215C157.544 24.6215 157.162 24.6996 156.802 24.8558C156.443 25.0121 156.123 25.2308 155.841 25.5121C155.576 25.7933 155.365 26.1371 155.208 26.5433C155.052 26.9496 154.974 27.4027 154.974 27.9027C154.974 28.4027 155.052 28.8558 155.208 29.2621C155.365 29.6683 155.576 30.0121 155.841 30.2933C156.123 30.5746 156.443 30.7933 156.802 30.9496C157.162 31.1058 157.544 31.184 157.951 31.184C158.591 31.184 159.13 31.0433 159.568 30.7621C160.021 30.4652 160.38 30.0433 160.646 29.4965L163.459 30.7152Z" fill="white"/>
<path d="M151 30.8793C150.469 31.8168 149.75 32.5746 148.844 33.1527C147.953 33.7308 146.86 34.0199 145.563 34.0199C144.688 34.0199 143.875 33.8715 143.125 33.5746C142.391 33.2621 141.75 32.8324 141.203 32.2855C140.657 31.7386 140.227 31.098 139.914 30.3636C139.618 29.6136 139.469 28.7933 139.469 27.9027C139.469 27.0746 139.618 26.2933 139.914 25.559C140.211 24.809 140.625 24.1605 141.157 23.6136C141.688 23.0511 142.313 22.6058 143.032 22.2777C143.766 21.9496 144.571 21.7855 145.446 21.7855C146.368 21.7855 147.188 21.9418 147.907 22.2543C148.625 22.5511 149.227 22.973 149.711 23.5199C150.196 24.0511 150.563 24.684 150.813 25.4183C151.063 26.1527 151.188 26.9496 151.188 27.809C151.188 27.9183 151.188 28.0121 151.188 28.0902C151.172 28.184 151.164 28.2699 151.164 28.348C151.149 28.4261 151.141 28.5121 151.141 28.6058H142.493C142.555 29.0746 142.68 29.4808 142.868 29.8246C143.071 30.1527 143.313 30.434 143.594 30.6683C143.891 30.8871 144.211 31.0511 144.555 31.1605C144.899 31.2543 145.25 31.3011 145.61 31.3011C146.313 31.3011 146.891 31.1449 147.344 30.8324C147.813 30.5043 148.18 30.098 148.446 29.6136L151 30.8793ZM148.211 26.4261C148.196 26.223 148.125 25.9965 148 25.7465C147.891 25.4965 147.719 25.2621 147.485 25.0433C147.266 24.8246 146.985 24.6449 146.641 24.5043C146.313 24.3636 145.914 24.2933 145.446 24.2933C144.789 24.2933 144.211 24.4808 143.711 24.8558C143.211 25.2308 142.86 25.7543 142.657 26.4261H148.211Z" fill="white"/>
<path d="M132.979 33.6449V19.8636H128.291V16.8636H140.83V19.8636H136.143V33.6449H132.979Z" fill="white"/>
<path d="M127.596 30.8793C127.065 31.8168 126.346 32.5746 125.44 33.1527C124.549 33.7308 123.455 34.0199 122.158 34.0199C121.283 34.0199 120.471 33.8715 119.721 33.5746C118.986 33.2621 118.346 32.8324 117.799 32.2855C117.252 31.7386 116.822 31.098 116.51 30.3636C116.213 29.6136 116.065 28.7933 116.065 27.9027C116.065 27.0746 116.213 26.2933 116.51 25.559C116.807 24.809 117.221 24.1605 117.752 23.6136C118.283 23.0511 118.908 22.6058 119.627 22.2777C120.361 21.9496 121.166 21.7855 122.041 21.7855C122.963 21.7855 123.783 21.9418 124.502 22.2543C125.221 22.5511 125.822 22.973 126.307 23.5199C126.791 24.0511 127.158 24.684 127.408 25.4183C127.658 26.1527 127.783 26.9496 127.783 27.809C127.783 27.9183 127.783 28.0121 127.783 28.0902C127.768 28.184 127.76 28.2699 127.76 28.348C127.744 28.4261 127.736 28.5121 127.736 28.6058H119.088C119.151 29.0746 119.276 29.4808 119.463 29.8246C119.666 30.1527 119.908 30.434 120.19 30.6683C120.486 30.8871 120.807 31.0511 121.151 31.1605C121.494 31.2543 121.846 31.3011 122.205 31.3011C122.908 31.3011 123.486 31.1449 123.94 30.8324C124.408 30.5043 124.776 30.098 125.041 29.6136L127.596 30.8793ZM124.807 26.4261C124.791 26.223 124.721 25.9965 124.596 25.7465C124.486 25.4965 124.315 25.2621 124.08 25.0433C123.861 24.8246 123.58 24.6449 123.236 24.5043C122.908 24.3636 122.51 24.2933 122.041 24.2933C121.385 24.2933 120.807 24.4808 120.307 24.8558C119.807 25.2308 119.455 25.7543 119.252 26.4261H124.807Z" fill="white"/>
<path d="M108.589 22.1605H111.472V23.7543H111.66C111.8 23.473 111.988 23.2152 112.222 22.9808C112.456 22.7465 112.714 22.5433 112.995 22.3715C113.292 22.1996 113.605 22.0668 113.933 21.973C114.277 21.8793 114.613 21.8324 114.941 21.8324C115.347 21.8324 115.691 21.8715 115.972 21.9496C116.269 22.0277 116.519 22.1293 116.722 22.2543L115.902 25.0433C115.714 24.9496 115.503 24.8793 115.269 24.8324C115.05 24.7699 114.777 24.7386 114.449 24.7386C114.027 24.7386 113.644 24.8246 113.3 24.9965C112.956 25.1527 112.66 25.3793 112.41 25.6761C112.175 25.973 111.988 26.3246 111.847 26.7308C111.722 27.1215 111.66 27.5511 111.66 28.0199V33.6449H108.589V22.1605Z" fill="white"/>
<path d="M103.779 32.1449H103.592C103.232 32.723 102.748 33.184 102.139 33.5277C101.529 33.8558 100.834 34.0199 100.053 34.0199C98.5996 34.0199 97.5137 33.5746 96.7949 32.684C96.0918 31.7933 95.7402 30.6058 95.7402 29.1215V22.1605H98.8105V28.7465C98.8105 29.5746 98.9902 30.1918 99.3496 30.598C99.7246 30.9886 100.264 31.184 100.967 31.184C101.389 31.184 101.756 31.098 102.068 30.9261C102.396 30.7386 102.67 30.4965 102.889 30.1996C103.123 29.8871 103.295 29.5277 103.404 29.1215C103.529 28.6996 103.592 28.2543 103.592 27.7855V22.1605H106.662V33.6449H103.779V32.1449Z" fill="white"/>
<path d="M88.3958 24.7855H86.3801V22.1605H88.3958V18.6449H91.4661V22.1605H94.2786V24.7855H91.4661V29.2387C91.4661 29.5043 91.4895 29.7543 91.5364 29.9886C91.5989 30.2074 91.7083 30.3949 91.8645 30.5512C92.0833 30.8012 92.3958 30.9262 92.802 30.9262C93.0676 30.9262 93.2786 30.9027 93.4348 30.8558C93.5911 30.7933 93.7395 30.7152 93.8801 30.6215L94.7473 33.3168C94.3879 33.4887 93.9973 33.6137 93.5754 33.6918C93.1692 33.7855 92.7161 33.8324 92.2161 33.8324C91.6379 33.8324 91.1145 33.7465 90.6458 33.5746C90.1926 33.3871 89.8098 33.1371 89.4973 32.8246C88.7629 32.1215 88.3958 31.1215 88.3958 29.8246V24.7855Z" fill="white"/>
<path d="M82.2058 32.1449H82.0183C81.6589 32.723 81.1746 33.184 80.5652 33.5277C79.9558 33.8558 79.2605 34.0199 78.4792 34.0199C77.0261 34.0199 75.9402 33.5746 75.2214 32.684C74.5183 31.7933 74.1667 30.6058 74.1667 29.1215V22.1605H77.2371V28.7465C77.2371 29.5746 77.4167 30.1918 77.7761 30.598C78.1511 30.9886 78.6902 31.184 79.3933 31.184C79.8152 31.184 80.1824 31.098 80.4949 30.9261C80.823 30.7386 81.0964 30.4965 81.3152 30.1996C81.5496 29.8871 81.7214 29.5277 81.8308 29.1215C81.9558 28.6996 82.0183 28.2543 82.0183 27.7855V22.1605H85.0886V33.6449H82.2058V32.1449Z" fill="white"/>
<path d="M62.7273 16.8636H73.3679V19.8636H65.8914V23.9418H72.6179V26.9418H65.8914V33.6449H62.7273V16.8636Z" fill="white"/>
<path d="M33.3333 50.5V42.1666C37.9444 42.1666 41.6666 38.4444 41.6666 33.8333H49.9999C49.9999 43.0555 42.5277 50.5 33.3333 50.5Z" fill="#FFD11A"/>
<path d="M33.3333 50.5V42.1666C28.7222 42.1666 25 38.4444 25 33.8333H16.6666C16.6666 43.0555 24.1388 50.5 33.3333 50.5Z" fill="#FFD11A"/>
<path d="M0 33.8334H8.33333C8.33333 38.4445 12.0556 42.1667 16.6667 42.1667V50.5C7.47222 50.5 0 43.0556 0 33.8334Z" fill="#FFD11A"/>
<path d="M0 33.8334H8.33333C8.33333 29.2222 12.0556 25.5 16.6667 25.5V17.1667C7.47222 17.1667 0 24.6389 0 33.8334Z" fill="#FFD11A"/>
<path d="M16.6667 0.5V8.83333C12.0556 8.83333 8.33333 12.5556 8.33333 17.1667H0C0 7.97222 7.47222 0.5 16.6667 0.5Z" fill="#FFD11A"/>
<path d="M16.6666 0.5V8.83333C21.2777 8.83333 25 12.5556 25 17.1667H33.3333C33.3333 7.97222 25.8611 0.5 16.6666 0.5Z" fill="#FFD11A"/>
<path d="M50 17.1667H41.6667C41.6667 12.5556 37.9445 8.83333 33.3334 8.83333V0.5C42.5278 0.5 50 7.97222 50 17.1667Z" fill="#FFD11A"/>
<path d="M50 17.1667H41.6667C41.6667 21.7778 37.9445 25.5 33.3334 25.5V33.8334C42.5278 33.8334 50 26.3889 50 17.1667Z" fill="#FFD11A"/>
</svg>
