<svg xmlns="http://www.w3.org/2000/svg" xmlns:xlink="http://www.w3.org/1999/xlink"><symbol id="icon-user" viewBox="0 0 473.931 473.931"><circle cx="236.966" cy="236.966" r="236.966" fill="#f5c82d"/><g fill="#c17e42"><path d="M293.526 285.893l.015.03 18.308-.812 27.955 43.73 4.969 42.312-7.76 16.946 22.099 51.943c8.157-4.913 15.962-10.346 23.438-16.176L345.248 283.49l-51.722 2.403zM153.446 372.399l15.641-67.43 5.13-1.433-36.243 6.327-42.469 117.236a236.982 236.982 0 0029.399 18.698l28.692-73.107-.15-.291z"/></g><path d="M339.8 328.837l-27.955-43.73-18.308.812-20.58.909-74.498 9.931-24.247 6.773-5.13 1.433-15.641 67.43.153.292 13.979 26.237 12.569 26.896 4.284 42.192c16.905 3.828 34.458 5.916 52.516 5.916 27.053 0 53.013-4.595 77.234-12.943l7.139-38.615 15.689-34.278 7.76-16.946-4.964-42.309z" fill="#46898d"/><path d="M252.958 92.639s-11.787 146.988 75.004 176.458c0 0-5.093-7.992-12.681-42.922 0 0 7.397 19.057 26.739 17.53 0 0-27.221-39.266-28.647-68.613 0 0-.49 14.14 27.412 19.255 0 0-28.553-42.731-31.345-75.539.004 0-22.892-37.219-56.482-26.169z" fill="#444343"/><path d="M244.109 210.444c16.056-.299 29.874 11.308 30.877 25.934l4.165 61.226c.995 14.612-57.14 15.682-58.136 1.059l-4.165-61.215c-1.003-14.619 11.203-26.712 27.259-27.004z" fill="#ba7842"/><g fill="#333"><path d="M242.451 185.195s-27.349 137.959-86.337 152.118c0 0 5.811-7.484 16.598-41.56 0 0-9.126 18.293-28.247 14.978 0 0 30.724-36.579 34.866-65.668 0 0-.827 14.125-29.077 16.632 0 0 32.381-39.902 38.185-72.31-.004.004 21.593-18.297 54.012-4.19zM246.2 205.958s16.939 139.616 74.704 158.157c0 0-5.231-7.895-13.433-42.682 0 0 7.73 18.918 27.042 17.051 0 0-27.902-38.783-29.855-68.1 0 0-.236 14.151 27.749 18.769 0 0-29.298-42.215-32.662-74.97 0-.005-20.161-19.866-53.545-8.225z"/></g><path d="M298.488 221.553c1.212 24.681-19.322 44.119-45.867 43.423-26.544-.703-49.043-21.272-50.259-45.953l-5.066-103.374c-1.205-24.677 19.33-44.119 45.874-43.423 26.537.703 49.036 21.272 50.252 45.949l5.066 103.378z" fill="#c17e42"/><g fill="#4c4b49"><path d="M261.665 72.339s-27.349 137.955-86.345 152.117c0 0 5.818-7.484 16.606-41.56 0 0-9.134 18.286-28.247 14.978 0 0 30.724-36.583 34.866-65.672 0 0-.827 14.125-29.077 16.636 0 0 32.381-39.902 38.185-72.317-.004.005 21.59-18.292 54.012-4.182z"/><path d="M252.704 91.258s26.031 40.86 52.048 49.204c0 0-13.01-1.848-10.245-35.289 0 0-.007-27.872-27.872-37.144-.001.004-18.586.011-13.931 23.229z"/></g></symbol> <view id="icon-user-view" viewBox="0 0 473.931 473.931"/> <use xlink:href="#icon-user" x="0" y="0" width="473.931" height="473.931"/></svg>