<svg xmlns="http://www.w3.org/2000/svg" xmlns:xlink="http://www.w3.org/1999/xlink"><symbol id="icon-snow" viewBox="0 0 24 24"><path fill="none" d="M9.5 15h.01m5.99 0h.01M9.5 19h.01m2.99-2h.01m-.01 4h.01m2.99-2h.01M6 16.444a5.346 5.346 0 01-3-4.795C3 9.2 4.8 6.938 7.5 6.5 8.347 4.486 10.351 3 12.69 3c2.994 0 5.442 2.323 5.61 5.25 1.59.695 2.7 2.4 2.7 4.247a4.5 4.5 0 01-2 3.745" stroke="#000" stroke-width="2" stroke-linecap="round" stroke-linejoin="round"/></symbol><symbol id="icon-sun" viewBox="0 0 24 24"><path fill="none" d="M11.095 8.027A5.002 5.002 0 0121 9a5 5 0 01-2.96 4.566m-6.945-5.54A5.059 5.059 0 007 11c-2.4.375-4 2.314-4 4.414C3 17.947 5.149 20 7.8 20H15c2.21 0 4-1.728 4-3.86 0-.957-.361-1.87-.96-2.574m-6.945-5.54c.17-.017.343-.026.518-.026 2.662 0 4.837 1.99 4.987 4.5.558.235 1.05.606 1.44 1.066" stroke="#000" stroke-width="2" stroke-linecap="round" stroke-linejoin="round"/></symbol> <view id="icon-snow-view" viewBox="0 0 24 24"/><view id="icon-sun-view" viewBox="0 34 24 24"/> <use xlink:href="#icon-snow" x="0" y="0" width="24" height="24"/><use xlink:href="#icon-sun" x="0" y="34" width="24" height="24"/></svg>