<svg width="80" height="80" viewBox="0 0 80 80" fill="none" xmlns="http://www.w3.org/2000/svg">
<path d="M40 24C40 32.8366 32.8366 40 24 40C15.1634 40 8 32.8366 8 24C8 15.1634 15.1634 8 24 8C32.8366 8 40 15.1634 40 24Z" fill="#404040"/>
<path d="M72 24C72 32.8366 64.8366 40 56 40C47.1634 40 40 32.8366 40 24C40 15.1634 47.1634 8 56 8C64.8366 8 72 15.1634 72 24Z" fill="#FFD11A"/>
<path d="M72 56C72 64.8366 64.8366 72 56 72C47.1634 72 40 64.8366 40 56C40 47.1634 47.1634 40 56 40C64.8366 40 72 47.1634 72 56Z" fill="#404040"/>
<path d="M40 56C40 64.8366 32.8366 72 24 72C15.1634 72 8 64.8366 8 56C8 47.1634 15.1634 40 24 40C32.8366 40 40 47.1634 40 56Z" fill="#FFD11A"/>
</svg>
