<svg width="80" height="80" viewBox="0 0 80 80" fill="none" xmlns="http://www.w3.org/2000/svg">
<path d="M66.8045 13.1956C74.2991 20.6902 73.5896 33.551 65.2967 41.8439L50.2186 56.9219L23.0781 29.7815L38.1562 14.7034C46.4491 6.41048 59.3099 5.70096 66.8045 13.1956Z" fill="#FFD11A"/>
<path d="M35.1405 72L8 44.8595C16.3274 36.5322 29.1537 35.8571 36.6483 43.3517C44.143 50.8464 43.4679 63.6726 35.1405 72Z" fill="#404040"/>
<path d="M63.7889 70.4922L36.6484 43.3517C44.9758 35.0243 57.8021 34.3493 65.2968 41.8439C72.7914 49.3386 72.1163 62.1648 63.7889 70.4922Z" fill="#FFD11A"/>
<path d="M36.6483 43.3517L9.50781 16.2112C17.8352 7.88384 30.6615 7.20878 38.1561 14.7034C45.6508 22.1981 44.9757 35.0243 36.6483 43.3517Z" fill="#FFD11A"/>
</svg>
