<svg width="50" height="50" viewBox="0 0 50 50" fill="none" xmlns="http://www.w3.org/2000/svg">
<path d="M28.9275 34.4167H21.1219V50H28.9275V34.4167Z" fill="#FFD11A"/>
<path d="M28.9275 0H21.1219V15.5833H28.9275V0Z" fill="#FFD11A"/>
<path d="M34.4097 21.0945V28.9001H49.993V21.0945H34.4097Z" fill="#FFD11A"/>
<path d="M0 21.1016L0 28.9072H15.5833V21.1016H0Z" fill="#FFD11A"/>
<path d="M34.4245 28.8769L28.9052 34.3962L39.9241 45.4151L45.4434 39.8958L34.4245 28.8769Z" fill="#404040"/>
<path d="M10.0906 4.54558L4.57129 10.0649L15.5903 21.0839L21.1096 15.5646L10.0906 4.54558Z" fill="#404040"/>
<path d="M28.886 15.5885L34.4053 21.1078L45.4243 10.0888L39.9049 4.56949L28.886 15.5885Z" fill="#404040"/>
<path d="M4.55724 39.9197L10.0765 45.439L21.0955 34.4201L15.5762 28.9008L4.55724 39.9197Z" fill="#404040"/>
</svg>
