<?xml version="1.0" encoding="iso-8859-1"?>
<!-- Uploaded to: SVG Repo, www.svgrepo.com, Generator: SVG Repo Mixer Tools -->
<svg height="800px" width="800px" version="1.1" id="Layer_1" xmlns="http://www.w3.org/2000/svg" xmlns:xlink="http://www.w3.org/1999/xlink" 
	 viewBox="0 0 473.931 473.931" xml:space="preserve">
<circle style="fill:#F5C82D;" cx="236.966" cy="236.966" r="236.966"/>
<g>
	<path style="fill:#C17E42;" d="M293.526,285.893l0.015,0.03l18.308-0.812l27.955,43.73l4.969,42.312l-7.76,16.946l22.099,51.943
		c8.157-4.913,15.962-10.346,23.438-16.176l-37.302-140.376L293.526,285.893z"/>
	<path style="fill:#C17E42;" d="M153.446,372.399l15.641-67.43l5.13-1.433l-36.243,6.327L95.505,427.099
		c9.295,6.926,19.124,13.175,29.399,18.698l28.692-73.107L153.446,372.399z"/>
</g>
<path style="fill:#46898D;" d="M339.8,328.837l-27.955-43.73l-18.308,0.812l-20.58,0.909l-74.498,9.931l-24.247,6.773l-5.13,1.433
	l-15.641,67.43l0.153,0.292l13.979,26.237l12.569,26.896l4.284,42.192c16.905,3.828,34.458,5.916,52.516,5.916
	c27.053,0,53.013-4.595,77.234-12.943l7.139-38.615l15.689-34.278l7.76-16.946L339.8,328.837z"/>
<path style="fill:#444343;" d="M252.958,92.639c0,0-11.787,146.988,75.004,176.458c0,0-5.093-7.992-12.681-42.922
	c0,0,7.397,19.057,26.739,17.53c0,0-27.221-39.266-28.647-68.613c0,0-0.49,14.14,27.412,19.255c0,0-28.553-42.731-31.345-75.539
	C309.444,118.808,286.548,81.589,252.958,92.639z"/>
<path style="fill:#BA7842;" d="M244.109,210.444c16.056-0.299,29.874,11.308,30.877,25.934l4.165,61.226
	c0.995,14.612-57.14,15.682-58.136,1.059l-4.165-61.215C215.847,222.829,228.053,210.736,244.109,210.444z"/>
<g>
	<path style="fill:#333333;" d="M242.451,185.195c0,0-27.349,137.959-86.337,152.118c0,0,5.811-7.484,16.598-41.56
		c0,0-9.126,18.293-28.247,14.978c0,0,30.724-36.579,34.866-65.668c0,0-0.827,14.125-29.077,16.632c0,0,32.381-39.902,38.185-72.31
		C188.435,189.389,210.032,171.088,242.451,185.195z"/>
	<path style="fill:#333333;" d="M246.2,205.958c0,0,16.939,139.616,74.704,158.157c0,0-5.231-7.895-13.433-42.682
		c0,0,7.73,18.918,27.042,17.051c0,0-27.902-38.783-29.855-68.1c0,0-0.236,14.151,27.749,18.769c0,0-29.298-42.215-32.662-74.97
		C299.745,214.178,279.584,194.317,246.2,205.958z"/>
</g>
<path style="fill:#C17E42;" d="M298.488,221.553c1.212,24.681-19.322,44.119-45.867,43.423l0,0
	c-26.544-0.703-49.043-21.272-50.259-45.953l-5.066-103.374c-1.205-24.677,19.33-44.119,45.874-43.423l0,0
	c26.537,0.703,49.036,21.272,50.252,45.949L298.488,221.553z"/>
<g>
	<path style="fill:#4C4B49;" d="M261.665,72.339c0,0-27.349,137.955-86.345,152.117c0,0,5.818-7.484,16.606-41.56
		c0,0-9.134,18.286-28.247,14.978c0,0,30.724-36.583,34.866-65.672c0,0-0.827,14.125-29.077,16.636c0,0,32.381-39.902,38.185-72.317
		C207.649,76.526,229.243,58.229,261.665,72.339z"/>
	<path style="fill:#4C4B49;" d="M252.704,91.258c0,0,26.031,40.86,52.048,49.204c0,0-13.01-1.848-10.245-35.289
		c0,0-0.007-27.872-27.872-37.144C266.634,68.033,248.049,68.04,252.704,91.258z"/>
</g>
</svg>