<svg width="512" height="512" xmlns="http://www.w3.org/2000/svg">
  <style>
    .first {
      fill: #ec1922;
    }

    .second {
      fill: #222222;
    }

    @media (prefers-color-scheme: dark) {
      .first {
      }

      .second {
        fill: #fff;
      }
    }
  </style>

  <g fill="none">
    <path class="second"
      d="M372.509 45.254c-17.355.034-41.537.348-44.432.659-9.851 1.058-21.536 3.898-25.358 6.163-.885.525-2.098.954-2.696.954-1.655 0-7.424 2.912-16.174 8.162-13.729 8.237-27.892 23.392-34.683 37.108-4.393 8.873-5.959 12.554-6.529 15.353-.336 1.648-1.026 3.722-1.535 4.61-1 1.747-2.085 7.282-3.332 16.983-1.074 8.363-.016 86.331-.016 86.331l-.69 93.98c-.148 50.704.034 59.696 1.427 70.177.894 6.733 3.136 15.424 4.488 17.403.38.555.69 1.637.69 2.402 0 .767.227 1.532.504 1.701.276.17.845 1.457 1.266 2.859.42 1.402 1.856 4.447 3.193 6.765a489.377 489.377 0 013.275 5.751c4.243 7.72 12.355 17.075 20.932 24.137 7.4 6.096 8.259 6.738 10.646 7.965 1.243.639 3.072 1.71 4.067 2.38 1.905 1.287 7.46 3.945 12.647 6.054a221.08 221.08 0 014.131 1.716c3.055 1.354 15.386 4.212 21.682 5.025 7.57.978 17.18 1.03 23.49.126 1.845-.264 4.75-.622 6.453-.796 5.954-.605 20.612-5.461 28.135-9.322 6.855-3.517 10.962-5.949 13.468-7.972 9.109-7.356 11.497-9.418 14.41-12.44 2.883-2.988 4.78-5.292 10.731-13.03 2.34-3.044 8.592-14.96 9.944-18.953a492.995 492.995 0 012.584-7.428c1.205-3.337 2.034-7.155 3.448-15.88.834-5.144.943-10.563.914-62.238l-.035-15.472-48.76-.068-.01 16.309c0 54.29-.044 55.414-2.467 63.774-1.347 4.649-4.552 11.148-7.324 14.849-3.482 4.652-10.18 10.643-14.972 13.388-8.167 4.681-10.862 5.745-17.551 6.93-13.608 2.409-24.711.456-36.867-6.483-2.403-1.373-4.83-2.874-5.393-3.336-1.942-1.596-9.112-8.837-10.454-10.559-1.887-2.42-5.751-10.263-7.16-14.532-2.521-7.638-2.562-8.55-2.576-68.262L286 222c2.182-.01 4.196-.016 6.541-.029l28.09-.156c3.431.071 62.509.078 65.941.087l.637-48.422-73.17-.073h-26.43l-.802-1.138c-.67-.946-.804-3.043-.804-12.47 0-13.862.838-27.067 1.848-29.114.403-.818.733-1.687.733-1.932 0-.884 4.3-9.455 6.122-12.204 2.832-4.27 10.211-11.651 14.29-14.294 4.333-2.806 9.881-5.382 16.241-7.539 2.612-.885 5.23-.983 32.525-1.218l8.075-.07v-.186h21.61l.133-23.948.135-23.948-1.167-.021c-3.227-.062-8.254-.082-14.039-.07z"
    />
    <path class="first"
      d="M171.299 469.892c-6.296-.813-18.627-3.671-21.683-5.025a221.172 221.172 0 00-4.13-1.716c-5.188-2.11-10.742-4.767-12.648-6.054-.994-.671-2.823-1.742-4.066-2.38-2.388-1.227-3.245-1.869-10.647-7.965-8.576-7.062-16.688-16.416-20.932-24.136a482.437 482.437 0 00-3.274-5.752c-1.337-2.319-2.774-5.363-3.193-6.765-.42-1.403-.99-2.69-1.267-2.859-.276-.17-.503-.935-.503-1.7 0-.766-.31-1.848-.69-2.403-1.353-1.98-3.594-10.67-4.488-17.403-1.393-10.48-1.575-19.473-1.428-70.178l.131-9.042 24.416-.008 24.39.008.02 11.983c.103 59.711.055 60.624 2.575 68.261 1.409 4.269 5.274 12.113 7.16 14.533 1.343 1.722 8.512 8.963 10.454 10.559.563.462 2.99 1.963 5.394 3.336 12.155 6.94 23.258 8.892 36.866 6.483 6.69-1.184 9.386-2.25 17.553-6.93 4.79-2.746 11.489-8.736 14.971-13.388 2.77-3.701 5.976-10.2 7.324-14.849 2.423-8.36 2.466-9.485 2.466-63.774 0-28.173-.209-53.205-.466-55.623-.64-6.028-2.186-10.94-5.63-17.874-2.55-5.137-3.537-6.52-7.816-10.945-2.693-2.786-3.501-4.437-15.53-10.48-4.374-2.198-12.346-5.047-18.113-5.24l-22.599-.75-28.088.154c-37.92.21-54.32-.008-54.787-.393-1.073-.883-1.057-77.968.017-86.331 1.247-9.701 2.332-15.236 3.332-16.983.508-.888 1.199-2.962 1.535-4.61.57-2.799 2.136-6.48 6.529-15.353 6.79-13.716 20.955-28.87 34.683-37.108 8.75-5.25 14.52-8.162 16.175-8.162.597 0 1.81-.429 2.695-.954 3.822-2.265 15.506-5.105 25.358-6.163 3.86-.415 45.564-.834 58.47-.589l1.167.023-.134 23.947-.134 23.948-29.685.256c-27.294.235-29.913.333-32.523 1.219-6.36 2.156-11.91 4.732-16.242 7.538-4.08 2.642-11.458 10.024-14.29 14.294-1.823 2.75-6.123 11.32-6.123 12.205 0 .244-.33 1.113-.734 1.93-1.009 2.048-1.847 15.253-1.847 29.115 0 9.427.136 11.524.804 12.47l.803 1.139 26.429-.001c26.258 0 39.622.64 43.98 2.11.853.288 2.596.708 3.873.934 3.751.666 7.336 1.665 9.585 2.674 1.154.519 2.446.942 2.87.942.424 0 1.222.339 1.772.752.552.414 1.293.76 1.647.769 1.775.045 15.857 7.563 18.715 9.99.71.604 2.22 1.689 3.356 2.412 2.73 1.737 12.602 10.828 15.85 14.594 1.416 1.642 2.944 3.735 3.396 4.65.451.917 1.009 1.666 1.238 1.666.75 0 5.805 8.302 9.047 14.855 3.352 6.772 4.631 9.88 5.276 12.806.218.986.772 2.946 1.231 4.354.884 2.71 1.915 7.579 3.035 14.344.532 3.21.678 16.353.678 60.7 0 51.675-.078 57.094-.913 62.238-1.414 8.726-2.242 12.543-3.447 15.88a480.071 480.071 0 00-2.584 7.428c-1.353 3.993-7.606 15.91-9.945 18.953-5.951 7.739-7.848 10.042-10.73 13.032-2.913 3.02-5.302 5.082-14.41 12.438-2.506 2.023-6.613 4.455-13.467 7.972-7.524 3.861-22.182 8.717-28.137 9.322-1.703.174-4.607.531-6.453.796-6.31.903-15.92.852-23.49-.126z"
    />
  </g>
</svg>
