<svg xmlns="http://www.w3.org/2000/svg" xmlns:xlink="http://www.w3.org/1999/xlink"><symbol id="icon-arrow-bottom" viewBox="0 0 25 25"><path fill-rule="evenodd" clip-rule="evenodd" d="M12.5 4.25a.75.75 0 01.75.75v13.19l5.47-5.47a.75.75 0 111.06 1.06l-6.75 6.75a.75.75 0 01-1.06 0l-6.75-6.75a.75.75 0 111.06-1.06l5.47 5.47V5a.75.75 0 01.75-.75z" fill="currentColor"/></symbol><symbol id="icon-arrow-down" viewBox="0 0 25 25"><path d="M6.5 9.5l6 6 6-6" stroke="#fff" stroke-width="2" stroke-linecap="round" stroke-linejoin="round"/></symbol><symbol id="icon-arrow-top-right" viewBox="0 0 25 25"><path fill-rule="evenodd" clip-rule="evenodd" d="M8.75 4.25H20a.75.75 0 01.75.75v11.25a.75.75 0 01-1.5 0V6.81L5.53 20.53a.75.75 0 01-1.06-1.06L18.19 5.75H8.75a.75.75 0 010-1.5z"/></symbol><symbol id="icon-eye" viewBox="0 0 24 25"><path d="M21.603 11.328c.255.321.397.739.397 1.172 0 .433-.142.851-.397 1.172C19.984 15.65 16.3 19.5 12 19.5s-7.984-3.85-9.603-5.828A1.89 1.89 0 012 12.5c0-.433.142-.85.397-1.172C4.016 9.35 7.7 5.5 12 5.5s7.985 3.85 9.603 5.828z" stroke="currentColor" stroke-width="1.5" stroke-linecap="round" stroke-linejoin="round"/><path d="M12 15.61c1.703 0 3.083-1.392 3.083-3.11s-1.38-3.111-3.082-3.111c-1.703 0-3.083 1.393-3.083 3.11 0 1.72 1.38 3.112 3.083 3.112z" stroke="currentColor" stroke-width="1.5" stroke-linecap="round" stroke-linejoin="round"/></symbol><symbol id="icon-like" viewBox="0 0 24 25"><path d="M11.645 21.41l-.007-.003-.022-.012a15.247 15.247 0 01-.383-.218 25.18 25.18 0 01-4.244-3.17C4.688 15.86 2.25 12.674 2.25 8.75c0-2.928 2.464-5.25 5.438-5.25A5.5 5.5 0 0112 5.552 5.5 5.5 0 0116.313 3.5c2.973 0 5.437 2.322 5.437 5.25 0 3.925-2.438 7.111-4.739 9.256a25.175 25.175 0 01-4.244 3.17 15.247 15.247 0 01-.383.219l-.022.012-.007.004-.003.001a.752.752 0 01-.704 0l-.003-.001z"/></symbol><symbol id="icon-linkedin" viewBox="0 0 24 24"><path d="M20.865 1.6H3.135A1.535 1.535 0 001.6 3.135v17.73A1.536 1.536 0 003.136 22.4h17.729a1.536 1.536 0 001.535-1.536V3.135A1.536 1.536 0 0020.865 1.6zM7.8 19.319H4.672V9.385H7.8v9.934zM6.234 8.009a1.795 1.795 0 111.805-1.794 1.77 1.77 0 01-1.805 1.794zm13.092 11.318h-3.125V13.9c0-1.6-.68-2.094-1.559-2.094-.927 0-1.837.7-1.837 2.135v5.386H9.677V9.392h3.008v1.377h.04c.302-.611 1.36-1.655 2.973-1.655 1.745 0 3.63 1.035 3.63 4.069l-.002 6.144z"/></symbol><symbol id="icon-logo" viewBox="0 0 150 151"><path d="M99.999 150.5v-25c13.833 0 25-11.166 25-25h24.999c0 27.667-22.416 50-50 50z" fill="#FFD11A"/><path d="M100 150.5v-25c-13.834 0-25-11.166-25-25H50c0 27.667 22.416 50 50 50zM0 100.498h25c0 13.833 11.166 25 25 25v24.999c-27.584 0-50-22.333-50-49.999z" fill="#FFD11A"/><path d="M0 100.499h25c0-13.833 11.166-25 25-25V50.5c-27.584 0-50 22.416-50 49.999zM50 .5v25c-13.834 0-25 11.167-25 25H0C0 22.917 22.416.5 50 .5z" fill="#FFD11A"/><path d="M50 .5v25c13.833 0 25 11.167 25 25h24.999c0-27.583-22.416-50-50-50zM149.998 50.5h-25c0-13.833-11.166-25-25-25V.5c27.584 0 50 22.417 50 50z" fill="#FFD11A"/><path d="M149.998 50.5h-25c0 13.833-11.166 25-25 25v24.999c27.584 0 50-22.333 50-50z" fill="#FFD11A"/></symbol><symbol id="icon-medium" viewBox="0 0 24 24"><path d="M13.537 12.228c0 3.77-3.03 6.828-6.768 6.828S0 15.998 0 12.228C0 8.458 3.03 5.4 6.769 5.4c3.738 0 6.768 3.057 6.768 6.828zM20.963 12.229c0 3.549-1.516 6.427-3.385 6.427-1.869 0-3.384-2.878-3.384-6.427 0-3.55 1.515-6.428 3.384-6.428 1.87 0 3.384 2.877 3.384 6.428M24 12.228c0 3.18-.533 5.758-1.19 5.758-.658 0-1.19-2.578-1.19-5.758s.532-5.758 1.19-5.758c.657 0 1.19 2.578 1.19 5.758z"/></symbol><symbol id="icon-message" viewBox="0 0 24 25"><path d="M8.486 19.689c1.06.52 2.253.811 3.514.811a8 8 0 10-6.66-3.566m3.146 2.755L4 20.5l1.34-3.566m3.146 2.755l.006-.001M5.34 16.934l.002-.003" stroke="#666" stroke-width="1.5" stroke-linecap="round" stroke-linejoin="round"/></symbol><symbol id="icon-play" viewBox="0 0 58 58"><path fill="currentColor" fill-rule="evenodd" clip-rule="evenodd" d="M.563 29C.563 13.294 13.293.562 29 .562 44.706.563 57.438 13.294 57.438 29S44.706 57.438 29 57.438.562 44.706.562 29zm40.903-2.868c2.25 1.25 2.25 4.486 0 5.736l-16.341 9.08c-2.187 1.214-4.875-.367-4.875-2.87V19.922c0-2.501 2.688-4.083 4.875-2.868l16.341 9.079z"/></symbol><symbol id="icon-shared" viewBox="0 0 24 25"><path d="M10.038 14.462l-5.866-2.667c-.807-.367-.773-1.525.055-1.844L18.9 4.308c.809-.311 1.603.483 1.292 1.292L14.55 20.273c-.319.828-1.477.863-1.844.055l-2.667-5.866zm0 0l4.385-4.385" stroke="#666" stroke-width="1.5" stroke-linecap="round" stroke-linejoin="round"/></symbol><symbol id="icon-star" viewBox="0 0 20 20"><path d="M8.275 1.943c.773-1.318 2.678-1.318 3.45 0l1.726 2.944a2 2 0 001.297.942l3.333.731c1.492.328 2.08 2.14 1.066 3.282l-2.266 2.551a2 2 0 00-.495 1.524l.334 3.396c.15 1.52-1.392 2.64-2.792 2.029l-3.127-1.368a2 2 0 00-1.602 0l-3.127 1.367c-1.4.613-2.94-.507-2.791-2.028l.334-3.396a2 2 0 00-.495-1.524L.853 9.843C-.16 8.7.427 6.887 1.92 6.56l3.333-.731a2 2 0 001.296-.942l1.726-2.944z"/></symbol><symbol id="icon-twitter" viewBox="0 0 24 24"><path d="M21.057 7.181c.01.211.01.413.01.624.009 6.403-4.696 13.795-13.3 13.795-2.537 0-5.028-.758-7.167-2.179a9.174 9.174 0 006.918-2.016c-2-.038-3.76-1.392-4.371-3.37a4.366 4.366 0 002.111-.086c-2.176-.441-3.741-2.429-3.75-4.742v-.058c.648.375 1.38.586 2.12.605C1.582 8.334.943 5.5 2.184 3.284c2.38 3.033 5.88 4.867 9.64 5.068a4.98 4.98 0 011.352-4.636c1.88-1.834 4.844-1.738 6.622.21a9.095 9.095 0 002.972-1.18 4.855 4.855 0 01-2.055 2.678 9.362 9.362 0 002.685-.758 9.768 9.768 0 01-2.343 2.515z"/></symbol> <view id="icon-arrow-bottom-view" viewBox="0 0 25 25"/><view id="icon-arrow-down-view" viewBox="0 35 25 25"/><view id="icon-arrow-top-right-view" viewBox="0 70 25 25"/><view id="icon-eye-view" viewBox="0 105 24 25"/><view id="icon-like-view" viewBox="0 140 24 25"/><view id="icon-linkedin-view" viewBox="0 175 24 24"/><view id="icon-logo-view" viewBox="0 209 150 151"/><view id="icon-medium-view" viewBox="0 370 24 24"/><view id="icon-message-view" viewBox="0 404 24 25"/><view id="icon-play-view" viewBox="0 439 58 58"/><view id="icon-shared-view" viewBox="0 507 24 25"/><view id="icon-star-view" viewBox="0 542 20 20"/><view id="icon-twitter-view" viewBox="0 572 24 24"/> <use xlink:href="#icon-arrow-bottom" x="0" y="0" width="25" height="25"/><use xlink:href="#icon-arrow-down" x="0" y="35" width="25" height="25"/><use xlink:href="#icon-arrow-top-right" x="0" y="70" width="25" height="25"/><use xlink:href="#icon-eye" x="0" y="105" width="24" height="25"/><use xlink:href="#icon-like" x="0" y="140" width="24" height="25"/><use xlink:href="#icon-linkedin" x="0" y="175" width="24" height="24"/><use xlink:href="#icon-logo" x="0" y="209" width="150" height="151"/><use xlink:href="#icon-medium" x="0" y="370" width="24" height="24"/><use xlink:href="#icon-message" x="0" y="404" width="24" height="25"/><use xlink:href="#icon-play" x="0" y="439" width="58" height="58"/><use xlink:href="#icon-shared" x="0" y="507" width="24" height="25"/><use xlink:href="#icon-star" x="0" y="542" width="20" height="20"/><use xlink:href="#icon-twitter" x="0" y="572" width="24" height="24"/></svg>