<svg xmlns="http://www.w3.org/2000/svg" xmlns:xlink="http://www.w3.org/1999/xlink"><symbol id="icon-chef" viewBox="0 0 32 32"><path d="M8.49 12.68v4.61c0 .34.23.61.53.71v5.48c0 .13-.14 3.21 1.88 5.34 1.22 1.28 2.93 1.94 5.09 1.94s3.88-.65 5.09-1.94c2.02-2.13 1.89-5.21 1.88-5.3V18c.3-.1.53-.37.53-.71v-4.61a4.657 4.657 0 002.92-4.32 4.675 4.675 0 00-6.13-4.44c-1.09-1.67-2.93-2.68-4.94-2.68s-3.68.91-4.79 2.46c-2.74-.22-5.01 1.96-5.01 4.65 0 1.96 1.21 3.63 2.92 4.32zM20 27.79c-.92.97-2.27 1.46-4 1.46s-3.07-.49-4-1.46c-1.58-1.66-1.48-4.21-1.48-4.28v-5.48h10.96v5.51s.1 2.58-1.48 4.24zm2.01-14.77v3.51H9.99v-3.51h12.02zM10.23 5.19c.21 0 .4.02.59.05.3.05.61-.09.77-.35a4.405 4.405 0 017.73.3.8.8 0 00.43.38c.19.06.39.05.57-.04.45-.23.95-.35 1.44-.35a3.171 3.171 0 010 6.34H10.23a3.171 3.171 0 010-6.34z"/><path d="M14.26 5.25a3.17 3.17 0 012.59 3.11c0 .41.34.75.75.75s.75-.34.75-.75c0-2.24-1.6-4.17-3.81-4.59-.4-.07-.8.19-.88.6-.08.41.19.8.6.88z"/><circle cx="13.32" cy="20.07" r="1.25"/><circle cx="18.68" cy="20.07" r="1.25"/><path d="M17.56 24.5h-3.12c-.41 0-.75.34-.75.75s.34.75.75.75h3.12c.41 0 .75-.34.75-.75s-.34-.75-.75-.75z"/></symbol> <view id="icon-chef-view" viewBox="0 0 32 32"/> <use xlink:href="#icon-chef" x="0" y="0" width="32" height="32"/></svg>