<svg width="24" height="24" viewBox="0 0 24 24" xmlns="http://www.w3.org/2000/svg">
  <path
    d="M13.5374 12.2281C13.5374 15.9988 10.5069 19.0556 6.76883 19.0556C3.03073 19.0556 0 15.9981 0 12.2281C0 8.45806 3.0305 5.40039 6.76883 5.40039C10.5072 5.40039 13.5374 8.45737 13.5374 12.2281Z"/>
  <path
    d="M20.9627 12.2285C20.9627 15.7778 19.4474 18.6563 17.5783 18.6563C15.7091 18.6563 14.1938 15.7778 14.1938 12.2285C14.1938 8.67922 15.7089 5.80078 17.578 5.80078C19.4472 5.80078 20.9625 8.67829 20.9625 12.2285"/>
  <path
    d="M24 12.228C24 15.4073 23.4672 17.9862 22.8097 17.9862C22.1522 17.9862 21.6196 15.408 21.6196 12.228C21.6196 9.04797 22.1525 6.46973 22.8097 6.46973C23.467 6.46973 24 9.04774 24 12.228Z"/>
</svg>
