<?xml version="1.0" encoding="utf-8"?><!-- Uploaded to: SVG Repo, www.svgrepo.com, Generator: SVG Repo Mixer Tools -->
<svg width="800px" height="800px" viewBox="0 0 24 24" xmlns="http://www.w3.org/2000/svg">
<path fill="none" d="M11.0947 8.02658C11.5476 5.73111 13.5717 4 16 4C18.7614 4 21 6.23858 21 9C21 11.0345 19.7849 12.7852 18.0408 13.5659M11.0947 8.02658C9.24194 8.21766 7.68947 9.4193 7 11C4.6 11.375 3 13.3144 3 15.4137C3 17.9466 5.14903 20 7.8 20L15 20C17.2091 20 19 18.2719 19 16.1402C19 15.1829 18.6388 14.2698 18.0408 13.5659M11.0947 8.02658C11.265 8.00902 11.4378 8 11.6127 8C14.2747 8 16.4504 9.99072 16.6 12.5C17.1583 12.7354 17.6501 13.106 18.0408 13.5659" stroke="#000000" stroke-width="2" stroke-linecap="round" stroke-linejoin="round"/>
</svg>
