<svg width="24" height="24" viewBox="0 0 24 24" xmlns="http://www.w3.org/2000/svg">
  <path
    d="M20.8647 1.59961H3.13554C2.72832 1.59961 2.33777 1.76138 2.04982 2.04933C1.76187 2.33728 1.6001 2.72783 1.6001 3.13505V20.8642C1.6001 21.2714 1.76187 21.6619 2.04982 21.9499C2.33777 22.2378 2.72832 22.3996 3.13554 22.3996H20.8647C21.2719 22.3996 21.6624 22.2378 21.9504 21.9499C22.2383 21.6619 22.4001 21.2714 22.4001 20.8642V3.13505C22.4001 2.72783 22.2383 2.33728 21.9504 2.04933C21.6624 1.76138 21.2719 1.59961 20.8647 1.59961ZM7.79965 19.3186H4.67243V9.38516H7.79965V19.3186ZM6.23388 8.00861C5.87915 8.00661 5.53296 7.89958 5.239 7.70102C4.94504 7.50246 4.71649 7.22127 4.58219 6.89294C4.44789 6.56461 4.41386 6.20386 4.48439 5.8562C4.55492 5.50855 4.72686 5.18958 4.9785 4.93955C5.23014 4.68952 5.5502 4.51964 5.8983 4.45134C6.2464 4.38304 6.60693 4.41939 6.93439 4.5558C7.26185 4.6922 7.54156 4.92255 7.73823 5.21778C7.9349 5.51301 8.03971 5.85988 8.03943 6.21461C8.04278 6.45211 7.99827 6.68784 7.90857 6.90777C7.81887 7.1277 7.68582 7.32732 7.51733 7.49473C7.34884 7.66215 7.14837 7.79392 6.92787 7.88221C6.70736 7.97049 6.47134 8.01348 6.23388 8.00861ZM19.3263 19.3273H16.2005V13.9005C16.2005 12.3001 15.5202 11.8061 14.642 11.8061C13.7147 11.8061 12.8047 12.5052 12.8047 13.9409V19.3273H9.67743V9.39239H12.6848V10.7689H12.7252C13.0271 10.1579 14.0844 9.11361 15.6979 9.11361C17.4428 9.11361 19.3278 10.1493 19.3278 13.1826L19.3263 19.3273Z"
  />
</svg>
