<svg width="150" height="151" viewBox="0 0 150 151" fill="none" xmlns="http://www.w3.org/2000/svg">
<path d="M99.9989 150.5V125.5C113.832 125.5 124.999 114.334 124.999 100.5H149.998C149.998 128.167 127.582 150.5 99.9989 150.5Z" fill="#FFD11A"/>
<path d="M99.9991 150.5V125.5C86.1659 125.5 74.9993 114.334 74.9993 100.5H49.9996C49.9996 128.167 72.416 150.5 99.9991 150.5Z" fill="#FFD11A"/>
<path d="M0 100.498H24.9997C24.9997 114.331 36.1662 125.498 49.9994 125.498V150.497C22.4164 150.497 0 128.164 0 100.498Z" fill="#FFD11A"/>
<path d="M0 100.499H24.9997C24.9997 86.6662 36.1662 75.4997 49.9994 75.4997V50.5C22.4164 50.5 0 72.9164 0 100.499Z" fill="#FFD11A"/>
<path d="M49.9994 0.500488V25.5002C36.1662 25.5002 24.9997 36.6667 24.9997 50.4999H0C0 22.9169 22.4164 0.500488 49.9994 0.500488Z" fill="#FFD11A"/>
<path d="M49.9995 0.500488V25.5002C63.8327 25.5002 74.9992 36.6667 74.9992 50.4999H99.9989C99.9989 22.9169 77.5825 0.500488 49.9995 0.500488Z" fill="#FFD11A"/>
<path d="M149.998 50.4999H124.998C124.998 36.6667 113.832 25.5002 99.9987 25.5002V0.500488C127.582 0.500488 149.998 22.9169 149.998 50.4999Z" fill="#FFD11A"/>
<path d="M149.998 50.4995H124.998C124.998 64.3327 113.832 75.4992 99.9987 75.4992V100.499C127.582 100.499 149.998 78.1659 149.998 50.4995Z" fill="#FFD11A"/>
</svg>
