<svg width="25" height="25" viewBox="0 0 25 25" xmlns="http://www.w3.org/2000/svg">
<path fill-rule="evenodd" clip-rule="evenodd" d="M8.75 4.25L20 4.25C20.1989 4.25 20.3897 4.32902 20.5303 4.46967C20.671 4.61032 20.75 4.80109 20.75 5V16.25C20.75 16.6642 20.4142 17 20 17C19.5858 17 19.25 16.6642 19.25 16.25V6.81066L5.53033 20.5303C5.23744 20.8232 4.76256 20.8232 4.46967 20.5303C4.17678 20.2374 4.17678 19.7626 4.46967 19.4697L18.1893 5.75L8.75 5.75C8.33579 5.75 8 5.41421 8 5C8 4.58579 8.33579 4.25 8.75 4.25Z"/>
</svg>
