<svg width="24" height="25" viewBox="0 0 24 25" fill="none" xmlns="http://www.w3.org/2000/svg">
<path d="M21.6029 11.3275C21.8585 11.6491 22 12.0668 22 12.5C22 12.9332 21.8585 13.351 21.6029 13.6725C19.9845 15.65 16.3005 19.5 12 19.5C7.69952 19.5 4.01559 15.65 2.39712 13.6725C2.1415 13.351 2 12.9332 2 12.5C2 12.0668 2.1415 11.6491 2.39712 11.3275C4.01559 9.35 7.69952 5.5 12 5.5C16.3005 5.5 19.9845 9.35 21.6029 11.3275Z" stroke="currentColor" stroke-width="1.5" stroke-linecap="round" stroke-linejoin="round"/>
<path d="M12.0005 15.6109C13.7031 15.6109 15.0833 14.2181 15.0833 12.4999C15.0833 10.7817 13.7031 9.38879 12.0005 9.38879C10.2979 9.38879 8.91772 10.7817 8.91772 12.4999C8.91772 14.2181 10.2979 15.6109 12.0005 15.6109Z" stroke="currentColor" stroke-width="1.5" stroke-linecap="round" stroke-linejoin="round"/>
</svg>
