<svg width="20" height="20" viewBox="0 0 20 20" xmlns="http://www.w3.org/2000/svg">
<path d="M8.2749 1.9429C9.04759 0.62493 10.9529 0.624932 11.7256 1.9429L13.4514 4.88664C13.7334 5.36761 14.2034 5.70904 14.7479 5.8286L18.0809 6.5603C19.5731 6.8879 20.1619 8.69996 19.1472 9.8421L16.8809 12.3931C16.5106 12.8099 16.3311 13.3624 16.3857 13.9173L16.7197 17.3132C16.8693 18.8337 15.3278 19.9536 13.928 19.3415L10.8015 17.9744C10.2907 17.751 9.7098 17.751 9.19897 17.9744L6.07244 19.3415C4.67264 19.9536 3.13122 18.8337 3.28078 17.3132L3.61483 13.9173C3.66941 13.3624 3.48991 12.8099 3.11962 12.3931L0.853266 9.8421C-0.16142 8.69995 0.427356 6.8879 1.91959 6.5603L5.25257 5.8286C5.79713 5.70904 6.26708 5.36761 6.54906 4.88664L8.2749 1.9429Z"/>
</svg>
