<svg xmlns="http://www.w3.org/2000/svg" xmlns:xlink="http://www.w3.org/1999/xlink"><symbol id="icon-advantages-expert" viewBox="0 0 51 50"><path d="M25.334 35c0 5.523 4.477 10 10 10 5.522 0 10-4.477 10-10s-4.478-10-10-10h-10v10zM25.334 15c0-5.523-4.478-10-10-10-5.523 0-10 4.477-10 10s4.477 10 10 10h10V15z" fill="#FFD11A"/><path fill-rule="evenodd" clip-rule="evenodd" d="M35.334 5c-5.523 0-10 4.477-10 10v10h10c5.522 0 10-4.477 10-10s-4.478-10-10-10zm5 10a5 5 0 11-10 0 5 5 0 0110 0zM15.334 45c5.522 0 10-4.477 10-10V25h-10c-5.523 0-10 4.477-10 10s4.477 10 10 10zm5-10a5 5 0 11-10 0 5 5 0 0110 0z" fill="#404040"/></symbol><symbol id="icon-advantages-global" viewBox="0 0 51 50"><path d="M5.667 5h20c11.045 0 20 8.954 20 20h-20c-11.046 0-20-8.954-20-20z" fill="#FFD11A"/><path d="M5.667 25h20c11.045 0 20 8.954 20 20h-20c-11.046 0-20-8.954-20-20z" fill="#404040"/></symbol><symbol id="icon-advantages-news" viewBox="0 0 50 50"><path d="M28.927 34.417h-7.805V50h7.805V34.417zM28.927 0h-7.805v15.583h7.805V0zM34.41 21.095V28.9h15.583v-7.805H34.41zM0 21.102v7.805h15.583v-7.805H0z" fill="#FFD11A"/><path d="M34.425 28.877l-5.52 5.52 11.02 11.018 5.518-5.52-11.018-11.018zM10.09 4.546l-5.519 5.519 11.02 11.019 5.519-5.52L10.09 4.547zM28.886 15.588l5.52 5.52 11.018-11.02-5.52-5.519-11.018 11.02zM4.557 39.92l5.52 5.519L21.096 34.42l-5.52-5.52L4.557 39.92z" fill="#404040"/></symbol><symbol id="icon-contact-1" viewBox="0 0 80 80"><path d="M40 24c0 8.837-7.163 16-16 16S8 32.837 8 24 15.163 8 24 8s16 7.163 16 16z" fill="#404040"/><path d="M72 24c0 8.837-7.163 16-16 16s-16-7.163-16-16S47.163 8 56 8s16 7.163 16 16z" fill="#FFD11A"/><path d="M72 56c0 8.837-7.163 16-16 16s-16-7.163-16-16 7.163-16 16-16 16 7.163 16 16z" fill="#404040"/><path d="M40 56c0 8.837-7.163 16-16 16S8 64.837 8 56s7.163-16 16-16 16 7.163 16 16z" fill="#FFD11A"/></symbol><symbol id="icon-contact-2" viewBox="0 0 80 80"><path d="M8 30c0 8.874 5.255 16.521 12.822 20H8c0 12.15 9.85 22 22 22 8.874 0 16.522-5.255 20-12.822V72c12.15 0 22-9.85 22-22 0-8.875-5.254-16.522-12.822-20H72c0-12.15-9.85-22-22-22-8.874 0-16.522 5.254-20 12.822V8C17.85 8 8 17.85 8 30z" fill="#404040"/><path d="M50 40c0 5.523-4.477 10-10 10s-10-4.477-10-10 4.477-10 10-10 10 4.477 10 10z" fill="#FFD11A"/></symbol><symbol id="icon-feature-1" viewBox="0 0 80 80"><path d="M54 54c10.673-2.57 18-7.873 18-14s-7.327-11.43-18-14c1.098 4.213 1.716 8.968 1.716 14S55.098 49.787 54 54zM26 54C15.327 51.43 8 46.127 8 40s7.327-11.43 18-14c-1.098 4.213-1.716 8.968-1.716 14s.618 9.787 1.716 14z" fill="#404040"/><path d="M26 54c2.57 10.673 7.873 18 14 18s11.43-7.327 14-18c-4.213 1.098-8.968 1.716-14 1.716S30.213 55.098 26 54zM26 26c2.57-10.673 7.873-18 14-18s11.43 7.327 14 18c-4.213-1.098-8.968-1.716-14-1.716s-9.787.618-14 1.716z" fill="#FFD11A"/></symbol><symbol id="icon-feature-2" viewBox="0 0 93 80"><path d="M21.46 55.268V80h49.516V55.268H21.46z" fill="#FFD11A"/><path d="M70.966 55.246L92.384 42.88 67.626 0 46.208 12.366l24.758 42.88zM46.176 12.4L24.758.034 0 42.914 21.418 55.28 46.176 12.4z" fill="#404040"/></symbol><symbol id="icon-hat" viewBox="0 0 1024 1024"><path d="M824 215l-65-18 65-17 18-65 18 65 64 17-64 18-18 65-18-65zM124 784l-41-10 41-10 9-41 10 41 41 10-41 10-10 41-9-41zM901 283l-26-6 26-6 5-26 6 26 26 6-26 6-6 25-5-25zM113 446l-24-5 24-6 5-24 6 24 24 6-24 5-6 24-5-24z" fill="#FDCD60"/><path d="M105 255a9 9 0 1018 0 9 9 0 10-18 0zM912 769a25 25 0 1125-25 25 25 0 01-25 25zm0-36a10 10 0 1010 10 10 10 0 00-10-10z" fill="#5546CB"/><path d="M913 542c-19-15-45-28-78-40-2 7-6 14-13 21v6a54 54 0 0119 10c7 6 10 13 9 19s-7 11-16 14h-25c3 8 5 16 5 22s-4 16-10 19l-7 2c-5 0-10-2-15-6a55 55 0 01-13-15l-8 2c-7 12-17 19-26 19h-7a15 15 0 01-7-7 1000 1000 0 01-140 24c-31 3-62 5-92 5-91 0-177-14-255-42-18-6-30-24-30-45v-55c-43 13-77 29-99 47s-31 34-31 53 10 37 31 53 56 34 99 47c81 25 189 39 304 39s223-14 304-39c44-13 77-29 99-47s31-34 31-53-9-37-29-53z" fill="#AFBCF3"/><path d="M925 526c-23-19-57-35-101-49 4-100-14-175-53-227-49-65-131-95-256-94-111-1-194 28-246 86-39 44-61 103-64 177a514 514 0 001 55h-5c-46 14-81 31-106 50s-39 44-39 69 13 48 39 69 60 36 106 50c83 26 193 40 310 40s227-14 310-40c46-14 81-31 106-50s39-44 39-69-15-46-41-67zm-115 32l-13-5a35 35 0 005-14h12c7 2 13 5 18 8s4 5 4 6-2 3-7 4-12 3-19 1zm-8 37c0 5-1 7-3 8s-4 0-8-3-9-9-12-16a52 52 0 01-5-14 35 35 0 0014-7h1a54 54 0 017 11c4 8 5 15 5 21zm-66 8c-3-1-4-12 3-26a49 49 0 018-12 35 35 0 0013 5 48 48 0 01-5 15c-8 14-17 20-20 18zm-5-64h1a35 35 0 005 14l-13 5c-7 2-14 2-19 1s-6-3-7-4 1-4 4-6 11-6 18-8zm-19-45h8c5 1 12 4 17 9l7 7a36 36 0 00-9 14l-9-6c-14-10-18-21-16-23zm56-27c3 0 9 9 9 24a53 53 0 01-1 9h-18a53 53 0 01-1-9c0-13 6-23 9-23zm0 45a22 22 0 11-22 22 23 23 0 0120-21zm42 4l-9 6a36 36 0 00-9-14l7-7c6-5 12-8 17-9s7 0 8 1-4 15-16 24zM284 256c48-54 126-81 231-79h5c116 0 191 27 235 86 27 35 42 82 48 141-70 27-140 46-210 54a746 746 0 01-174 1c-100-11-167-40-191-52h-3c6-63 25-114 59-151zm-59 171c29 14 96 40 192 51a766 766 0 00179-1c68-8 137-26 205-52v60l-11 7h-1c0-21-9-37-22-37s-22 16-22 37h-1c-7-6-15-10-23-12s-16 0-20 5-1 27 15 41c-9 2-17 6-23 11s-10 13-9 19 7 11 16 14h11l14-2a62 62 0 00-5 17 980 980 0 01-139 24c-30 3-61 5-90 5-88 0-172-14-248-41-10-3-16-14-17-27zm688 221c-22 18-56 34-99 47-81 25-189 39-304 39s-223-14-304-39c-44-13-77-29-99-47s-31-34-31-53 10-37 31-53 55-33 99-47v54c0 21 12 39 30 45 79 28 164 42 255 42 30 0 61-2 92-5a1000 1000 0 00140-24 15 15 0 007 7h7c9 0 18-7 26-19l8-2a55 55 0 0013 15c5 4 10 6 15 6l7-2c6-3 10-10 10-19s-2-15-5-22h23c9-2 15-7 16-14s-2-13-9-19a54 54 0 00-19-10v-6c7-7 11-14 13-21 33 12 60 25 78 40s31 34 31 53-11 38-31 54z" fill="#5546CB"/><path d="M419 459a746 746 0 00174-1c70-8 140-27 210-54-5-59-21-106-48-141-45-59-119-86-235-86h-5c-105-1-183 26-231 79-33 37-53 88-58 150h3c23 13 90 41 190 53z" fill="#FDCD60"/><path d="M226 549c0 12 7 23 17 27 76 27 160 41 248 41 29 0 60-2 90-5a980 980 0 00139-24 62 62 0 015-17l-14 2h-11c-9-2-15-7-16-14s2-13 9-19 14-9 23-11c-17-13-23-31-15-41s12-7 20-5 15 6 23 12h1c0-21 9-37 22-37s22 16 22 37h1l11-7v-62c-68 26-137 43-205 52a766 766 0 01-179 1c-96-11-162-38-192-51z" fill="#F97744"/><path d="M733 523a36 36 0 019-14l-7-7c-6-5-12-8-17-9h-8c-2 2 2 13 13 22zm-36 32c0 1 2 3 7 4s12 1 19 0l13-5a35 35 0 01-5-14h-13c-7 2-13 5-18 8s-4 6-3 7zm61 15a35 35 0 01-13-5 49 49 0 00-8 12c-7 14-5 25-3 26s12-4 19-18a48 48 0 005-15zm31-6h-1a35 35 0 01-14 7 52 52 0 005 14c3 7 8 13 12 16s7 3 8 3 3-3 3-8-2-13-5-20a54 54 0 00-8-12zm40-5c4-1 6-3 7-4s-1-4-4-6-11-6-18-8h-13a35 35 0 01-5 14l13 5c8 0 15 0 20-1zm-7-64c-1-1-3-1-8-1s-12 4-17 9l-7 7a36 36 0 019 14l9-6c12-10 16-21 14-23zm-65-2a53 53 0 001 9h17a53 53 0 001-9c0-15-6-24-9-24s-10 9-10 24z" fill="#FFF"/><path d="M766 558a22 22 0 10-22-22 23 23 0 0022 22z" fill="#FDCD60"/></symbol><symbol id="icon-podcast-1" viewBox="0 0 80 81"><path d="M48.701 27.715L19.518 56.5l-8.22-8.107a11.002 11.002 0 010-15.71l21.22-20.93c4.399-4.338 11.53-4.338 15.928 0l.255.252a11.002 11.002 0 010 15.71z" fill="#FFD11A"/><path d="M31.299 53.285L60.482 24.5l8.22 8.107a11.002 11.002 0 010 15.71l-21.22 20.93c-4.399 4.338-11.53 4.338-15.928 0l-.255-.252a11.002 11.002 0 010-15.71z" fill="#404040"/></symbol><symbol id="icon-podcast-2" viewBox="0 0 80 81"><path d="M8 14.5h64l-18 28c-19.788 0-36.182-10.82-46-28z" fill="#FFD11A"/><path d="M72 66.5H8l18-28c19.788 0 36.182 10.82 46 28z" fill="#404040"/></symbol><symbol id="icon-reports-1" viewBox="0 0 80 80"><path d="M56 56H24V24l32 32z" fill="#404040"/><path d="M72 8H8l16 16h32v32l16 16V8z" fill="#FFD11A"/></symbol><symbol id="icon-reports-2" viewBox="0 0 80 80"><path d="M66.805 13.196c7.494 7.494 6.785 20.355-1.508 28.648L50.219 56.922l-27.14-27.14 15.077-15.079C46.45 6.41 59.31 5.701 66.805 13.196z" fill="#FFD11A"/><path d="M35.14 72L8 44.86c8.327-8.328 21.154-9.003 28.648-1.508 7.495 7.494 6.82 20.32-1.508 28.648z" fill="#404040"/><path d="M63.789 70.492l-27.14-27.14c8.327-8.328 21.153-9.003 28.648-1.508 7.494 7.495 6.82 20.32-1.508 28.648zM36.648 43.352l-27.14-27.14c8.327-8.328 21.154-9.003 28.648-1.509 7.495 7.495 6.82 20.321-1.508 28.649z" fill="#FFD11A"/></symbol><symbol id="icon-resource-1" viewBox="0 0 80 81"><path d="M38 46.5c0-11.51 33.526-31.999 31.946-24.32a120.616 120.616 0 000 48.64C71.526 78.5 38 58.01 38 46.5z" fill="#FFD11A"/><path d="M42 34.5c0 11.51-33.526 31.999-31.946 24.32a120.616 120.616 0 000-48.64C8.474 2.5 42 22.99 42 34.5z" fill="#404040"/></symbol><symbol id="icon-resource-2" viewBox="0 0 80 81"><path d="M40 8.5v64l-28-16v-32l28-16z" fill="#FFD11A"/><path d="M68 8.5v64l-28-16v-32l28-16z" fill="#404040"/></symbol> <view id="icon-advantages-expert-view" viewBox="0 0 51 50"/><view id="icon-advantages-global-view" viewBox="0 60 51 50"/><view id="icon-advantages-news-view" viewBox="0 120 50 50"/><view id="icon-contact-1-view" viewBox="0 180 80 80"/><view id="icon-contact-2-view" viewBox="0 270 80 80"/><view id="icon-feature-1-view" viewBox="0 360 80 80"/><view id="icon-feature-2-view" viewBox="0 450 93 80"/><view id="icon-hat-view" viewBox="0 540 1024 1024"/><view id="icon-podcast-1-view" viewBox="0 1574 80 81"/><view id="icon-podcast-2-view" viewBox="0 1665 80 81"/><view id="icon-reports-1-view" viewBox="0 1756 80 80"/><view id="icon-reports-2-view" viewBox="0 1846 80 80"/><view id="icon-resource-1-view" viewBox="0 1936 80 81"/><view id="icon-resource-2-view" viewBox="0 2027 80 81"/> <use xlink:href="#icon-advantages-expert" x="0" y="0" width="51" height="50"/><use xlink:href="#icon-advantages-global" x="0" y="60" width="51" height="50"/><use xlink:href="#icon-advantages-news" x="0" y="120" width="50" height="50"/><use xlink:href="#icon-contact-1" x="0" y="180" width="80" height="80"/><use xlink:href="#icon-contact-2" x="0" y="270" width="80" height="80"/><use xlink:href="#icon-feature-1" x="0" y="360" width="80" height="80"/><use xlink:href="#icon-feature-2" x="0" y="450" width="93" height="80"/><use xlink:href="#icon-hat" x="0" y="540" width="1024" height="1024"/><use xlink:href="#icon-podcast-1" x="0" y="1574" width="80" height="81"/><use xlink:href="#icon-podcast-2" x="0" y="1665" width="80" height="81"/><use xlink:href="#icon-reports-1" x="0" y="1756" width="80" height="80"/><use xlink:href="#icon-reports-2" x="0" y="1846" width="80" height="80"/><use xlink:href="#icon-resource-1" x="0" y="1936" width="80" height="81"/><use xlink:href="#icon-resource-2" x="0" y="2027" width="80" height="81"/></svg>