<svg width="512" height="512" viewBox="0 0 550 550" version="1.1" id="SVGRoot" xmlns="http://www.w3.org/2000/svg"><style>@keyframes pug {
      from {
        transform: translate(0, 0)
      }

      to {
        transform: translate(-2%, -2%)
      }
    }

    .pug {
      animation: 1s linear 1s infinite alternate pug;
    }

    @keyframes gulp {
      from {
        transform: translate(0, 0)
      }

      to {
        transform: translate(2%, 2%) rotate(-10deg)
      }
    }

    .gulp {
      animation: 1s linear 1s infinite alternate gulp;
      transform-origin: center;
    }</style><g class="pug"><g id="layer1" display="inline"><path id="rect67" fill="none" fill-opacity="1" fill-rule="nonzero" stroke-width="1.742" d="M0 0h512v512H0z"/></g><g id="layer5" stroke-width="1.067"><path d="M216.224 158.382l-21.147-10.88-5.416-36.3 4.24-29.912 7.89-2.413 26.032 12.813 19.686 13.69 2.602 11.494-10.988 6.75-17.138 25.438-5.761 9.32" id="path45909" fill="#999" stroke="#000" stroke-linecap="butt" stroke-linejoin="miter" stroke-opacity="1"/><path d="M424.3 158.404l21.147-10.88 5.415-36.3-4.24-29.911-7.89-2.414L412.7 91.713l-19.686 13.69-2.603 11.494 10.988 6.75 17.138 25.438 5.762 9.32" id="path45909-9" fill="#999" stroke="#000" stroke-linecap="butt" stroke-linejoin="miter" stroke-opacity="1"/><path d="M289.653 124.265l59.41-.176 25.425 116.935 30.231 18.412 22.038 17.407 6.801 19.506-13.756 23.85-26.931 9.561-20.268 20.63-58.715 3.951-51.67-9.025-17.277-19.384-29.25-18.307-2.991-22.992 9.91-25.626 41.286-20.848 16.046-40.213z" id="path46111" fill="#f2f2f2" stroke="#000" stroke-linecap="butt" stroke-linejoin="miter" stroke-opacity="1"/><circle id="path46354" cx="245.655" cy="206.67" r="25.023" fill="#fff" fill-opacity="1" fill-rule="nonzero" stroke="none"/><circle id="path46356" cx="395.94" cy="207.737" r="23.23" fill="#fff" fill-opacity="1" fill-rule="nonzero" stroke="none"/></g><g id="layer3"><g id="g12468" transform="translate(150.724 22.302) scale(.66273)" fill="#1a1a1a"><path class="st0" d="M84.912 429.181l.017.044c-.004-.009-.004-.018-.004-.018l-.013-.026z" id="path12456" fill="#1a1a1a"/><path class="st0" d="M434.209 398.487l.018.06c0-.009-.009-.026-.009-.034-.009-.026-.009-.053-.009-.078z" id="path12458" fill="#1a1a1a"/><path class="st0" d="M311.954 408.886c-3.561.487-6.95.704-10.164.704-12.841 0-22.901-3.422-29.764-6.82-3.428-1.694-6.047-3.388-7.768-4.622-.208-.157-.365-.27-.552-.408v-11.268c7.706-4.205 3.223-17.61 11.998-18.488 10.404-1.042 8.319 10.399 4.166 15.603-2.086 4.17 21.85 0 21.85-22.893 0-27.062-24.974-35.394-43.717-35.394-18.731 0-43.7 8.332-43.7 35.394 0 22.893 23.93 27.063 21.849 22.893-4.17-5.204-6.246-16.646 4.162-15.603 8.757.877 4.309 14.222 11.932 18.462v11.294c-1.915 1.424-5.269 3.657-9.96 5.812-6.79 3.119-16.268 6.038-28.122 6.038-3.21 0-6.603-.217-10.165-.704a5.732 5.732 0 00-6.451 4.909 5.722 5.722 0 004.904 6.446c4.078.556 7.988.808 11.711.808 14.904 0 26.75-3.996 34.855-8.01 3.836-1.903 6.816-3.796 8.958-5.308 2.146 1.512 5.125 3.406 8.962 5.308 8.105 4.014 19.947 8.01 34.851 8.01 3.718 0 7.628-.252 11.711-.808a5.721 5.721 0 004.908-6.446c-.424-3.137-3.317-5.326-6.454-4.909z" id="path12460" fill="#1a1a1a"/><path class="st0" d="M127.999 281.089c0 8.731 7.072 15.804 15.816 15.804 8.718 0 15.799-7.072 15.799-15.804s-7.08-15.812-15.799-15.812c-8.745 0-15.816 7.08-15.816 15.812z" id="path12462" fill="#1a1a1a"/><path class="st0" d="M510.853 74.363c0-3.31 1.216-40.146-.182-40.737v.051c.078.296.078 1.773.06 2.12 0-.277-.018-1.094-.06-2.12-.009-.034-.009-.078-.027-.078.009 0 .018.018.027.027-.174-4.709-.6-13.78.052 2.233-1.104-27.289-27.246-41.502-52.006-33.257-15.352 5.117-29.929 13.952-44.282 21.355-15.222 7.854-30.382 15.864-45.229 24.412-13.301 7.671-27.08 15.447-38.052 26.341-10.878 10.799-18.575 24.683-23.649 39.052-2.545 7.237-4.552 14.734-5.56 22.354-.4 3.05-2.259 2.563-5.03 2.363-3.158-.217-6.199-.425-9.374-.425h-52.444c-7.81 0-15.834-.539-23.618.052-2.541.191-4.522-15.499-5.36-18.348-4.284-14.543-11.194-28.748-21.225-40.216-19.135-21.876-47.857-34.438-72.921-48.087-14.838-8.089-29.785-15.979-45.084-23.163-13.141-6.168-26.35-10.946-40.933-6.638C12.464 5.634 3.646 16.78 1.427 30.481.245 37.805.797 45.423.797 52.808v80.284c0 16.855-.934 34.022 2.024 50.702 2.602 14.63 8.153 28.808 17.545 40.433 8.283 10.26 18.879 18.331 29.816 25.559 5.335 3.518 10.786 6.864 16.225 10.226 1.507.93 6.398 2.876 7.076 4.509.647 1.538-3.41 8.279-4.066 9.826-6.538 15.412-10.483 30.077-6.39 46.792 3.796 15.526 11.155 30.355 16.924 45.22 1.916 4.935 7.41 13.57 5.991 18.948-1.664 6.291-4.427 11.295-4.948 18.01-2.015 25.899 14.644 49.964 37.692 60.684 7.202 3.354 14.987 5.552 22.824 6.776 2.667.417 3.47 2.659 4.848 4.632a86.35 86.35 0 007.641 9.409c10.126 10.816 23.105 19.138 37.406 23.162 15.394 4.326 31.55 3.814 47.387 3.814 17.206 0 34.417-.113 51.619.166 16.229.269 32.058-.626 47.14-7.159 14.126-6.134 26.463-16.117 35.428-28.644a80.897 80.897 0 002.937-4.37c1.312-2.084 2.398-1.694 4.709-2.268 3.414-.851 6.776-1.946 10.069-3.171 6.298-2.354 12.363-5.394 17.889-9.244 10.92-7.602 19.452-18.513 23.57-31.232 4.492-13.874 3.458-29.416-2.685-42.64-1.311-2.84-2.536-4.63-1.616-7.819.764-2.711 2.18-5.161 3.336-7.706 3.666-8.062 6.49-16.602 9.695-24.847 5.856-15.09 11.529-29.216 8.984-45.749-1.207-7.837-4.188-15.152-7.376-22.363a824.585 824.585 0 01-4.439-10.174c-.156-.374 3.996-2.675 4.326-2.875 11.607-7.063 23.378-14.248 34.169-22.519 12.128-9.296 21.103-21.519 26.785-35.68 10.642-26.594 7.524-56.696 7.524-84.732-.003-14.797-.003-29.602-.003-44.405zM337.279 268.248c5.986-13.961 18.54-19.539 32.415-20.303 18.8 1.086 33.744 18.714 31.119 37.601-2.693 19.434-22.71 32.918-41.692 27.583-18.914-5.299-29.634-26.706-21.842-44.881zm-160.325 14.666c-1.09 18.792-18.718 33.735-37.6 31.119-19.435-2.702-32.918-22.718-27.593-41.701 5.3-18.914 26.715-29.643 44.89-21.85 13.957 5.986 19.534 18.548 20.303 32.432zM91.658 200.77c-.018-.009-.036-.027-.053-.035.348.226.543.357.053.035zm7.176 4.562a1047.372 1047.372 0 01-7.992-5.1c-3.914-2.519-7.767-5.064-11.447-7.914-4.196-3.258-11.984-14.709-12.98-20.912-2.254-14.066-.773-29.208-.773-43.422 0-6.568.196-13.162-.095-19.73-.252-5.63-.621-11.963 4.17-15.924 4.87-4.04 10.266-2.545 15.404 0 6.62 3.276 13.353 6.308 19.934 9.661 11.033 5.638 24.356 11.408 33.183 20.338 4.383 4.43 7.254 10.313 9.24 16.16 1.503 4.448-5.117 4.978-8.301 6.681-23.155 12.326-30.695 37.582-40.343 60.162zM411.951 409.85c0 .018-.009.044-.018.078.009-.009.009-.017.009-.017-.009.035-.009.121-.026.243-.018.182-.027.278.035-.27-1.938 18.627-.287 2.624-.035.27 0-.07.017-.157.017-.226-1.233 11.833-7.636 22.146-17.358 28.913-4.657 3.241-9.87 5.639-15.273 7.316-5.091 1.572-10.999.677-15.829 2.693-2.477 1.034-3.284 4.075-4.518 6.238-1.633 2.893-3.406 5.708-5.37 8.392-4.257 5.83-9.409 10.991-15.429 15.005-12.823 8.557-28.01 10.234-43.057 10.382-17.098.156-34.199.017-51.293.017-15.633 0-31.858 1.903-46.984-3.067-13.366-4.388-25.151-13.371-32.778-25.212-2.18-3.38-4.157-11.138-8.827-11.512-5.925-.486-11.664-1.042-17.41-2.693-23.653-6.776-42.393-29.556-30.212-54.446 6.746-13.779 21.185-20.99 34.829-26.75 6.911-2.92 14.027-5.334 21.242-7.368 2.75-.773 6.281-1.068 8.762-2.545 2.523-1.502 3.614-6.203 4.747-8.67 14.161-30.807 26.468-62.022 33.527-95.287 6.082-28.652 8.036-57.427 9.513-86.583.057-1.138-.056-2.606.352-3.692.222-.582 8.232-.087 8.961-.087h51.879c2.015 0 8.392-1.129 9.908.357 1.294 1.26.283 8.331.343 10.043 1.204 33.595 5.304 67.131 14.361 99.562 4.326 15.507 9.635 30.729 15.611 45.68a612.838 612.838 0 009.088 21.468 861.582 861.582 0 004.891 10.739c.86 1.858 1.712 3.718 2.563 5.568 2.572.556 5.143 1.147 7.706 1.79 25.396 6.315 68.939 20.171 66.073 53.671zm34.099-243.57c0-.208-.009-.434-.009-.66v-.018c0 .252.009.486.009.678zm-.009-54.708v18.731c0 11.103-.017 22.206 0 33.309.026 8.792-2.259 18.462-8.566 24.942-6.985 7.185-16.298 11.52-24.673 16.812-8.323-19.504-14.405-41.415-31.954-54.856-3.945-3.023-8.245-5.56-12.823-7.488-2.346-.991-5.039-.669-4.136-3.528.93-2.936 2.085-5.804 3.51-8.549 4.795-9.278 13.474-14.63 22.223-19.738 10.304-6.021 20.99-11.346 31.78-16.438 7.697-3.631 19.113-9.374 23.787 1.903 1.93 4.64.852 10.044.852 14.9z" id="path12464" fill="#1a1a1a"/><path class="st0" d="M367.869 296.892c8.74 0 15.82-7.072 15.82-15.804s-7.08-15.812-15.82-15.812c-8.723 0-15.794 7.08-15.794 15.812-.001 8.732 7.071 15.804 15.794 15.804z" id="path12466" fill="#1a1a1a"/></g></g></g><g id="layer2" class="gulp"><g id="g12451" transform="scale(-13.29564 13.29564) rotate(-74.181 8.546 34.045)" fill="#d40000"><path d="M9.288 18.319a9.777 9.777 0 01-3.89.61l.02.001a10.331 10.331 0 01-3.992-.633l.072.023.703 1.173.282 3.753q0 .328.868.539a8.742 8.742 0 001.955.216L5.448 24h-.007l.149.001c.687 0 1.356-.077 1.998-.224l-.06.012q.868-.211.868-.539l.234-3.753zm-8.585-6c.171-.571.411-1.07.716-1.52l-.012.019a3.132 3.132 0 011.156-1.071l.017-.008a.995.995 0 01.896.049l-.005-.003a.94.94 0 01.326.279l.002.003c.07.076.12.172.14.278l.001.004a.383.383 0 01-.025.307l.001-.002a.212.212 0 01-.188.118q-.118 0-.305-.328-.282-.516-.8-.141a2.706 2.706 0 00-.793.945l-.007.015c-.215.375-.405.81-.547 1.267l-.013.047a1.447 1.447 0 00-.105.549c0 .147.021.288.061.422l-.003-.01a.275.275 0 00.24.142c.297-.059.549-.22.725-.443l.002-.003c.239-.226.448-.48.624-.758l.01-.016.234-.703q.094-.234.282-.234.188 0 .188.258a2.111 2.111 0 01-.194.74l.006-.013a6.135 6.135 0 00-.271.798l-.011.047-.378 1.216a1.274 1.274 0 01-.121.263l.003-.006a.198.198 0 01-.159.118h-.009a.159.159 0 01-.132-.07v-.001a.467.467 0 01-.023-.285l-.001.003a9.23 9.23 0 01.373-1.264l-.021.064-.328.328c-.249.28-.594.47-.982.52l-.008.001-.033.001a.665.665 0 01-.345-.096l.003.002.375 3.705q.047.234 1.219.516c.85.209 1.826.328 2.83.328h.082-.004.078c1.004 0 1.98-.12 2.915-.345l-.084.017q1.126-.282 1.219-.516l.516-4.409-.094.047c-.226.252-.49.463-.785.626l-.015.008a.984.984 0 01-.566.07l.006.001q-.285-.047-.285-.282c.098-.335.277-.62.515-.843l.001-.001.141-.234q.234-.234.234-.352 0-.118-.188-.094a.71.71 0 00-.375.188c-.15.138-.282.292-.394.46l-.006.009a4.416 4.416 0 00-.389.699l-.011.028-.188.375-.46 1.312a.62.62 0 01-.231.21l-.003.002a.213.213 0 01-.235 0h.001a.204.204 0 01-.091-.164l.047-.141c.122-.354.249-.648.394-.932l-.019.041.328-.703q.047-.188.047-.141c-.183.2-.401.365-.644.487l-.013.006a.757.757 0 01-.474.07l.005.001a.303.303 0 01-.234-.232v-.002l-.047-.094c-.197.201-.47.326-.773.328q-.305-.047-.16-.703c-.174.41-.569.694-1.031.703h-.001a.401.401 0 01-.421-.232l-.001-.003a1.974 1.974 0 01.23-1.09l-.005.011v-.047q.141-.328.328-.75.141-.282.375-.188h.047q.141.094.047.375l-.141.188c-.11.205-.22.452-.314.708l-.014.043q-.094.422.07.422a.79.79 0 00.356-.096l-.004.002c.209-.152.376-.349.489-.577l.004-.009c.107-.182.195-.393.254-.616l.004-.018.094-.24q.094-.234.211-.234a.296.296 0 01.211.093q.094.094 0 .328l-.328.75a1.736 1.736 0 00-.14.553v.007q0 .188.328.047c.126-.049.234-.112.33-.19l-.002.002q.047-.188.75-2.017l.469-1.173a.333.333 0 01.318-.235h.011-.001c.055.01.103.035.141.071q.094.07.047.258l-.847 2.026q-.328.844-.4 1.076-.072.232.028.24.328 0 1.079-.8l.047-.047.141-.328c.033-.162.098-.305.189-.428l-.002.003q.094-.094.141-.094.188 0 .188.16v.007a.954.954 0 01-.049.304l.002-.007.234-.234a1.006 1.006 0 01.824-.352h-.003a.38.38 0 01.353.378l-.001.023v-.001a2.256 2.256 0 01-.609 1.079l-.094.047a1.024 1.024 0 00-.139.274l-.002.007q0 .047.094.047c.129-.034.24-.1.328-.188l.8-.703.703-6.379a8.93 8.93 0 01-3.022.516H7.69h.004a36.826 36.826 0 01-4.61-.006l.106.005h-.075A9.084 9.084 0 01.03 6.428l.063.02zm10.179-6.286h-.047q0-.188-.868-.375a15.556 15.556 0 00-2.234-.28l-.042-.002.469-1.92L10.834.594Q10.975.5 10.6.172a.527.527 0 00-.278-.159l-.004-.001q-.141-.023-.188.023L7.271 3.028l-.61 2.298-1.219-.048a27.17 27.17 0 00-3.987.25l.14-.016q-1.594.234-1.594.516 0 .469 2.814.657a37.31 37.31 0 005.375-.007l-.121.007q2.814-.186 2.814-.656zm-3.28.234q0 .047-.188.118a1.238 1.238 0 01-.418.071h-.029.001-.028c-.15 0-.293-.026-.427-.073l.009.003q-.188-.07-.188-.118 0-.048.141-.094l-.047.047q0 .094.516.094t.516-.094l.047-.047q.091.044.091.09z" id="path12442" fill="#d40000"/></g></g><style type="text/css" id="style12454">.st0{fill:#000}</style></svg>